<svg width="120" height="120" viewBox="0 0 120 120" fill="none" xmlns="http://www.w3.org/2000/svg">
<path fill-rule="evenodd" clip-rule="evenodd" d="M110.722 0.56174C111.266 0.897698 111.714 1.36683 112.025 1.92466C112.336 2.4825 112.5 3.11054 112.5 3.74924V116.249C112.5 117.244 112.105 118.198 111.402 118.901C110.698 119.604 109.745 119.999 108.75 119.999H86.25C85.2554 119.999 84.3016 119.604 83.5983 118.901C82.8951 118.198 82.5 117.244 82.5 116.249V104.999H75V116.249C75 117.244 74.6049 118.198 73.9017 118.901C73.1984 119.604 72.2446 119.999 71.25 119.999H3.75C2.75544 119.999 1.80161 119.604 1.09835 118.901C0.395088 118.198 0 117.244 0 116.249V74.9992C0.000597351 74.2125 0.248611 73.4459 0.708937 72.8079C1.16926 72.1699 1.81859 71.6928 2.565 71.4442L45 57.2992V33.7492C45 33.0534 45.1937 32.3713 45.5592 31.7792C45.9248 31.1872 46.4479 30.7085 47.07 30.3967L107.07 0.39674C107.642 0.110284 108.278 -0.0249385 108.918 0.00394317C109.557 0.0328248 110.178 0.22485 110.722 0.56174ZM45 65.2042L7.5 77.6992V112.499H45V65.2042ZM52.5 112.499H67.5V101.249C67.5 100.255 67.8951 99.3008 68.5983 98.5976C69.3016 97.8943 70.2554 97.4992 71.25 97.4992H86.25C87.2446 97.4992 88.1984 97.8943 88.9017 98.5976C89.6049 99.3008 90 100.255 90 101.249V112.499H105V9.81674L52.5 36.0667V112.499Z" fill="#FA8A23"/>
<path d="M15 82.5H22.5V90H15V82.5ZM30 82.5H37.5V90H30V82.5ZM15 97.5H22.5V105H15V97.5ZM30 97.5H37.5V105H30V97.5ZM60 67.5H67.5V75H60V67.5ZM75 67.5H82.5V75H75V67.5ZM60 82.5H67.5V90H60V82.5ZM75 82.5H82.5V90H75V82.5ZM90 67.5H97.5V75H90V67.5ZM90 82.5H97.5V90H90V82.5ZM60 52.5H67.5V60H60V52.5ZM75 52.5H82.5V60H75V52.5ZM90 52.5H97.5V60H90V52.5ZM60 37.5H67.5V45H60V37.5ZM75 37.5H82.5V45H75V37.5ZM90 37.5H97.5V45H90V37.5ZM90 22.5H97.5V30H90V22.5Z" fill="#FA8A23"/>
</svg>
