<svg width="85" height="80" viewBox="0 0 85 80" fill="none" xmlns="http://www.w3.org/2000/svg">
<path d="M70.8333 13.3333H14.1666C10.2708 13.3333 7.11873 16.3333 7.11873 19.9999L7.08331 59.9999C7.08331 63.6666 10.2708 66.6666 14.1666 66.6666H70.8333C74.7291 66.6666 77.9166 63.6666 77.9166 59.9999V19.9999C77.9166 16.3333 74.7291 13.3333 70.8333 13.3333ZM69.4166 27.4999L44.3771 42.2332C43.2437 42.8999 41.7562 42.8999 40.6229 42.2332L15.5833 27.4999C15.2282 27.3123 14.9172 27.0588 14.6692 26.7548C14.4211 26.4507 14.2412 26.1025 14.1404 25.7312C14.0395 25.3598 14.0197 24.973 14.0822 24.5943C14.1447 24.2155 14.2883 23.8526 14.5041 23.5276C14.72 23.2025 15.0036 22.9221 15.338 22.7032C15.6723 22.4844 16.0504 22.3316 16.4492 22.2542C16.8481 22.1769 17.2595 22.1765 17.6586 22.2531C18.0576 22.3297 18.436 22.4817 18.7708 22.6999L42.5 36.6666L66.2291 22.6999C66.564 22.4817 66.9423 22.3297 67.3414 22.2531C67.7404 22.1765 68.1519 22.1769 68.5507 22.2542C68.9496 22.3316 69.3277 22.4844 69.662 22.7032C69.9963 22.9221 70.28 23.2025 70.4959 23.5276C70.7117 23.8526 70.8552 24.2155 70.9178 24.5943C70.9803 24.973 70.9605 25.3598 70.8596 25.7312C70.7587 26.1025 70.5788 26.4507 70.3308 26.7548C70.0828 27.0588 69.7718 27.3123 69.4166 27.4999Z" fill="white"/>
</svg>
