<svg width="74" height="77" viewBox="0 0 74 77" fill="none" xmlns="http://www.w3.org/2000/svg">
<path d="M37 2.49072C17.8432 2.49072 2.3125 18.6136 2.3125 38.5008C2.3125 58.388 17.8432 74.5109 37 74.5109C56.1567 74.5109 71.6875 58.388 71.6875 38.5008C71.6875 18.6136 56.1567 2.49072 37 2.49072ZM48.5625 50.8955V57.7062H25.4375C25.6872 55.1295 26.4549 52.6359 27.691 50.3865C28.9432 48.0795 31.4153 45.0246 35.1095 41.2124C38.0822 38.1347 39.9057 36.0473 40.5798 34.9502C41.4863 33.4378 41.9407 31.9398 41.9407 30.4633C41.9407 28.8273 41.5452 27.5705 40.7555 26.6907C39.9658 25.8108 38.8743 25.3727 37.481 25.3727C36.1039 25.3727 35.0066 25.8349 34.1938 26.7555C33.3798 27.6774 32.9103 29.2102 32.7855 31.348L26.211 30.617C26.6018 26.5827 27.8309 23.6875 29.8972 21.929C31.9645 20.1741 34.5464 19.2954 37.6463 19.2954C41.0411 19.2954 43.712 20.3133 45.6522 22.3479C47.5924 24.3824 48.5625 26.9152 48.5625 29.9412C48.5625 31.6625 48.285 33.3033 47.7288 34.8602C47.1738 36.4194 46.2928 38.0483 45.088 39.7527C44.289 40.8823 42.8483 42.5099 40.7671 44.6309C38.687 46.7555 37.3677 48.1635 36.8127 48.8597C36.2993 49.4902 35.847 50.1717 35.4622 50.8943H48.5625V50.8955Z" fill="#FA8A23"/>
</svg>
