<svg width="45" height="47" viewBox="0 0 45 47" fill="none" xmlns="http://www.w3.org/2000/svg">
<g clip-path="url(#clip0)">
<path d="M20.1877 45.8997C3.16055 26.6806 0 24.7082 0 17.6449C0 7.9697 10.0736 0.126465 22.5 0.126465C34.9264 0.126465 45 7.9697 45 17.6449C45 24.7082 41.8395 26.6806 24.8123 45.8997C23.695 47.1565 21.3049 47.1564 20.1877 45.8997ZM22.5 24.9442C27.6777 24.9442 31.875 21.6762 31.875 17.6449C31.875 13.6135 27.6777 10.3455 22.5 10.3455C17.3223 10.3455 13.125 13.6135 13.125 17.6449C13.125 21.6762 17.3223 24.9442 22.5 24.9442Z" fill="#FEF528"/>
</g>
<defs>
<clipPath id="clip0">
<rect width="45" height="46.7158" fill="white" transform="translate(0 0.126465)"/>
</clipPath>
</defs>
</svg>
