<svg width="417" height="166" viewBox="0 0 417 166" fill="none" xmlns="http://www.w3.org/2000/svg">
<g clip-path="url(#clip0)">
<path d="M22.8793 70.5473C3.58195 40.9262 0 37.8862 0 27C0 12.0883 11.4167 0 25.5 0C39.5833 0 51 12.0883 51 27C51 37.8862 47.418 40.9262 28.1207 70.5473C26.8543 72.4843 24.1456 72.4842 22.8793 70.5473ZM25.5 38.25C31.3681 38.25 36.125 33.2132 36.125 27C36.125 20.7868 31.3681 15.75 25.5 15.75C19.6319 15.75 14.875 20.7868 14.875 27C14.875 33.2132 19.6319 38.25 25.5 38.25Z" fill="#FA8A23"/>
</g>
<path d="M33.7314 155H20.5479V91.0156H33.7314V155ZM60.3922 155V91.0156H82.8043C90.568 91.0156 96.4566 92.5098 100.47 95.498C104.484 98.457 106.491 102.808 106.491 108.55C106.491 111.685 105.685 114.453 104.074 116.855C102.463 119.229 100.221 120.972 97.3502 122.085C100.631 122.905 103.21 124.561 105.085 127.051C106.989 129.541 107.941 132.588 107.941 136.191C107.941 142.344 105.978 147.002 102.052 150.166C98.1266 153.33 92.5309 154.941 85.2652 155H60.3922ZM73.5758 127.139V144.409H84.8697C87.9752 144.409 90.3922 143.677 92.1207 142.212C93.8785 140.718 94.7574 138.667 94.7574 136.06C94.7574 130.2 91.7252 127.227 85.6607 127.139H73.5758ZM73.5758 117.822H83.3316C89.982 117.705 93.3072 115.054 93.3072 109.868C93.3072 106.968 92.4576 104.888 90.7584 103.628C89.0885 102.339 86.4371 101.694 82.8043 101.694H73.5758V117.822ZM155.959 131.577H145.456V155H132.273V91.0156H156.047C163.606 91.0156 169.436 92.7002 173.537 96.0693C177.639 99.4385 179.69 104.199 179.69 110.352C179.69 114.717 178.738 118.364 176.833 121.294C174.958 124.194 172.102 126.509 168.264 128.237L182.107 154.385V155H167.956L155.959 131.577ZM145.456 120.898H156.091C159.402 120.898 161.965 120.063 163.781 118.394C165.598 116.694 166.506 114.365 166.506 111.406C166.506 108.389 165.642 106.016 163.913 104.287C162.214 102.559 159.592 101.694 156.047 101.694H145.456V120.898ZM240.276 141.816H217.161L212.766 155H198.748L222.566 91.0156H234.783L258.733 155H244.715L240.276 141.816ZM220.721 131.138H236.717L228.675 107.188L220.721 131.138ZM331.141 155H317.957L292.293 112.9V155H279.11V91.0156H292.293L318.001 133.203V91.0156H331.141V155ZM357.055 155V91.0156H376.742C382.367 91.0156 387.392 92.29 391.815 94.8389C396.269 97.3584 399.74 100.962 402.23 105.649C404.721 110.308 405.966 115.61 405.966 121.558V124.502C405.966 130.449 404.735 135.737 402.274 140.366C399.843 144.995 396.4 148.584 391.947 151.133C387.494 153.682 382.47 154.971 376.874 155H357.055ZM370.238 101.694V144.409H376.61C381.767 144.409 385.707 142.725 388.432 139.355C391.156 135.986 392.548 131.167 392.606 124.897V121.514C392.606 115.01 391.259 110.088 388.563 106.748C385.868 103.379 381.928 101.694 376.742 101.694H370.238Z" fill="black"/>
<defs>
<clipPath id="clip0">
<rect width="51" height="72" fill="white"/>
</clipPath>
</defs>
</svg>
