<svg width="135" height="125" viewBox="0 0 135 125" fill="none" xmlns="http://www.w3.org/2000/svg">
<g clip-path="url(#clip0)">
<path d="M67.5 0C51.1898 0 37.9688 13.7252 37.9688 30.6572C37.9688 44.3459 57.2695 69.2951 64.6641 78.3511C66.1617 80.1857 68.8406 80.1857 70.3359 78.3511C77.7305 69.2951 97.0312 44.3459 97.0312 30.6572C97.0312 13.7252 83.8102 0 67.5 0ZM67.5 40.8763C62.0625 40.8763 57.6562 36.302 57.6562 30.6572C57.6562 25.0124 62.0625 20.4382 67.5 20.4382C72.9375 20.4382 77.3438 25.0124 77.3438 30.6572C77.3438 36.302 72.9375 40.8763 67.5 40.8763ZM4.71563 52.5431C3.32385 53.121 2.13077 54.1185 1.29026 55.4069C0.449739 56.6954 0.00033333 58.2157 0 59.7719L0 120.678C0 123.432 2.67891 125.315 5.14219 124.293L37.5 109.003V52.2925C35.4281 48.4044 33.7336 44.6184 32.5195 40.998L4.71563 52.5431ZM67.5 87.5118C64.2023 87.5118 61.0828 86.0081 58.943 83.3852C54.3352 77.7404 49.4344 71.3121 45 64.7184V109.001L90 124.573V64.7208C85.5656 71.3121 80.6672 77.7428 76.057 83.3877C73.9172 86.0081 70.7977 87.5118 67.5 87.5118ZM129.858 39.2121L97.5 54.5017V124.575L130.284 110.962C131.676 110.385 132.87 109.387 133.71 108.099C134.551 106.81 135 105.29 135 103.733V42.8277C135 40.0734 132.321 38.1901 129.858 39.2121Z" fill="#FA8A23"/>
</g>
<defs>
<clipPath id="clip0">
<rect width="135" height="124.575" fill="white"/>
</clipPath>
</defs>
</svg>
