<svg width="76" height="72" viewBox="0 0 76 72" fill="none" xmlns="http://www.w3.org/2000/svg">
<path d="M38 0C17.0132 0 0 16.1177 0 36C0 55.8823 17.0132 72 38 72C58.9868 72 76 55.8823 76 36C76 16.1177 58.9868 0 38 0ZM24.3438 14.2998C25.1267 14.2561 25.8344 14.6994 26.3709 15.4863L31.5662 24.8203C32.1132 25.9263 31.8023 27.1106 30.9863 27.9008L28.6067 30.1552C28.4598 30.3459 28.3632 30.5606 28.3609 30.7968C29.2734 34.1433 32.0416 37.2302 34.484 39.353C36.9262 41.4758 39.5512 44.3498 42.9587 45.0307C43.3799 45.142 43.8959 45.1819 44.1973 44.9165L46.9619 42.2491C47.9162 41.5638 49.2968 41.2317 50.3157 41.792H50.362L59.7367 47.0347C61.1128 47.8519 61.2554 49.4314 60.2701 50.3921L53.8133 56.461C52.8597 57.3874 51.5929 57.6988 50.3622 57.7002C44.9188 57.5457 39.7755 55.0147 35.5509 52.4136C28.6165 47.6344 22.2558 41.7068 18.2625 34.5454C16.731 31.5424 14.9318 27.7108 15.1035 24.359C15.1189 23.098 15.479 21.8627 16.4163 21.0499L22.8733 14.9327C23.3763 14.5273 23.8739 14.3261 24.3438 14.2998Z" fill="white"/>
</svg>
