<svg width="68" height="71" viewBox="0 0 68 71" fill="none" xmlns="http://www.w3.org/2000/svg">
<path d="M34 0.395142C15.2229 0.395142 0 16.1985 0 35.6915C0 55.1845 15.2229 70.9879 34 70.9879C52.7771 70.9879 68 55.1845 68 35.6915C68 16.1985 52.7771 0.395142 34 0.395142ZM42.0523 51.0948C39.8639 53.3738 37.1405 54.5162 33.8833 54.5162C30.7961 54.5162 28.2359 53.5562 26.2038 51.6372C24.1717 49.7159 22.9931 47.204 22.6667 44.1038L28.9963 43.272C29.1992 45.0156 29.7409 46.351 30.6261 47.2722C31.5112 48.1935 32.5811 48.6559 33.8379 48.6559C35.1866 48.6559 36.3233 48.1017 37.2481 46.9969C38.1707 45.8898 38.6342 44.3979 38.6342 42.5178C38.6342 40.7412 38.1911 39.3329 37.3059 38.294C36.4208 37.2528 35.3441 36.7363 34.0714 36.7363C33.2327 36.7363 32.232 36.9104 31.0681 37.2622L31.79 31.503C33.5591 31.5536 34.9089 31.1371 35.8394 30.257C36.7699 29.377 37.2357 28.2075 37.2357 26.7486C37.2357 25.5073 36.8945 24.5179 36.2123 23.7825C35.5289 23.0448 34.6211 22.6754 33.4889 22.6754C32.3725 22.6754 31.4183 23.0931 30.6272 23.9319C29.8361 24.7708 29.3556 25.9932 29.1845 27.6039L23.1585 26.4992C23.5767 24.2684 24.2103 22.4871 25.0557 21.1541C25.9001 19.8211 27.0787 18.774 28.5929 18.0104C30.1025 17.248 31.7979 16.8668 33.6747 16.8668C36.8855 16.8668 39.4615 17.9716 41.3995 20.187C42.9975 21.9977 43.7965 24.0402 43.7965 26.3227C43.7965 29.5582 42.16 32.1407 38.8869 34.069C40.8419 34.522 42.4048 35.535 43.5767 37.1116C44.7474 38.6882 45.3333 40.5906 45.3333 42.8225C45.3333 46.058 44.2397 48.8147 42.0523 51.0948Z" fill="#FA8A23"/>
</svg>
